# xmcd
#
# Track frame offsets:
#	150
#	11297
#	30750
#	51660
#	67050
#	83550
#	99600
#	117085
#	133200
#	149355
#
# Disc length: 2206 seconds
#
# Revision: 3
# Processed by: cddbd v1.5.2PL0 Copyright (c) Steve Scherf et al.
# Submitted via: audiograbber 1.83.01
#
DISCID=83089c0a
DTITLE=Various Artist - CMT Fan's Choice Award
DYEAR=1999
DGENRE=Country
TTITLE0=Julian Austin - Little Ol' Kisses
TTITLE1=Julian Austin - Hard Time Lovin' You
TTITLE2=Paul Brandt - That's The Truth
TTITLE3=Paul Brandt - Let's Live IT Up
TTITLE4=Terri Clark - Now That I Found You
TTITLE5=Terri Clark - You're Easy On The Eyes
TTITLE6=Prairie Oyster - Canadian Sunrise
TTITLE7=Prairie Oyster - Keep On Dreaming
TTITLE8=Shania Twain - Love Gets Me Every Time
TTITLE9=Shania Twain - Honey, I'm Home
EXTD=
EXTT0=
EXTT1=
EXTT2=
EXTT3=
EXTT4=
EXTT5=
EXTT6=
EXTT7=
EXTT8=
EXTT9=
PLAYORDER=
